# xmcd
#
# Track frame offsets: 
#        183
#        15245
#        34183
#        48395
#        75645
#        93245
#        110583
#        123908
#        138070
#        159570
#        173608
#        177758
#        189920
#        202745
#        220570
#
# Disc length: 3108 seconds
#
# Revision: 2
# Processed by: cddbd v1.5.2PL0 Copyright (c) Steve Scherf et al.
# Submitted via: ExactAudioCopyFreeDBPlugin 1.0
#
DISCID=ab0c220f
DTITLE=Various Artist - Surprising Soul Volume 2
DYEAR=1998
DGENRE=Soul
TTITLE0=Tina Turner - We had it all
TTITLE1=Paul Young and The Q-tips - A man can't lose
TTITLE2=The Commodores - Rise up
TTITLE3=Kool and The Gang - Cherish
TTITLE4=Marvin Gaye - I heard it through the grapevine
TTITLE5=David Soul - Can't change my heart
TTITLE6=Percy Sledge - Take time to know her
TTITLE7=Jackson 5 - Soul jerk
TTITLE8=The Three Degrees - Make it easy on yourself
TTITLE9=The Commodores - I know I'm losing you
TTITLE10=James Brown - Hot pants
TTITLE11=Desmond Dekker - You can get it if you really want
TTITLE12=The Drifters - On Broadway
TTITLE13=Rod Stewart - (just) A little misunderstood
TTITLE14=Percy Sledge - It tears me up
EXTD=
EXTT0=
EXTT1=
EXTT2=
EXTT3=
EXTT4=
EXTT5=
EXTT6=
EXTT7=
EXTT8=
EXTT9=
EXTT10=
EXTT11=
EXTT12=
EXTT13=
EXTT14=
PLAYORDER=
